<svg width="140" height="14" viewBox="0 0 140 14" fill="none" xmlns="http://www.w3.org/2000/svg">
<path d="M129.368 13.6296V0.344744H139.746V3.52703H133.54V5.29182H138.793V8.34805H133.54V10.4035H140V13.6296H129.368Z" fill="#24388D"/>
<path d="M116.79 13.6296V0.344744H127.168V3.52703H120.957V5.29182H126.206V8.34805H120.957V10.4035H127.42V13.6296H116.79Z" fill="#24388D"/>
<path d="M105.388 13.6296V0.344744H115.206V3.6891H109.553V5.74717H114.053V8.95775H109.553V13.6321H105.388V13.6296Z" fill="#24388D"/>
<path d="M93.9768 13.6296V0.344744H103.797V3.6891H98.1493V5.74717H102.641V8.95775H98.1493V13.6321H93.9768V13.6296Z" fill="#24388D"/>
<path d="M78.5888 6.99743C78.5888 4.83646 79.1871 3.12312 80.3961 1.87541C81.6101 0.622565 83.254 0 85.3402 0C87.4215 0 89.0628 0.622565 90.2693 1.87541C91.4783 3.12312 92.0741 4.83646 92.0741 6.99743C92.0741 9.1584 91.4783 10.8666 90.2693 12.1194C89.0628 13.3723 87.4215 13.9974 85.3402 13.9974C83.254 13.9974 81.6101 13.3723 80.3961 12.1194C79.1871 10.8692 78.5888 9.1584 78.5888 6.99743ZM82.7965 6.99743C82.7965 8.25285 83.0001 9.17898 83.4098 9.7681C83.8221 10.3572 84.4655 10.6505 85.3377 10.6505C86.2099 10.6505 86.8509 10.3572 87.2556 9.77067C87.6577 9.1867 87.8613 8.26057 87.8613 6.99743C87.8613 5.73172 87.6603 4.80301 87.2556 4.21389C86.8509 3.63506 86.2099 3.33921 85.3377 3.33921C84.4655 3.33921 83.8195 3.63506 83.4098 4.22418C83.0001 4.8133 82.7965 5.73686 82.7965 6.99743Z" fill="#24388D"/>
<path d="M73.4436 8.48183H77.3899C77.2768 10.2312 76.6735 11.5947 75.5826 12.5568C74.4917 13.5189 73.0263 14 71.1663 14C69.0851 14 67.4538 13.3826 66.2598 12.1349C65.0634 10.8846 64.4677 9.17385 64.4677 7.00002C64.4677 4.83905 65.0634 3.12571 66.2422 1.87801C67.4186 0.625157 69.0323 0.00259209 71.0683 0.00259209C72.9484 0.00259209 74.4264 0.465657 75.5072 1.39179C76.5855 2.32306 77.1913 3.65309 77.3195 5.38186H73.3229C73.2651 4.70013 73.0489 4.18561 72.6744 3.83574C72.31 3.49359 71.7821 3.3238 71.116 3.3238C70.3041 3.3238 69.6883 3.62993 69.2786 4.23706C68.8689 4.84677 68.6703 5.77032 68.6703 7.00259C68.6703 8.21428 68.8915 9.13012 69.3213 9.74754C69.7587 10.3675 70.3971 10.6788 71.2342 10.6788C71.8852 10.6788 72.3929 10.491 72.775 10.1051C73.1545 9.72696 73.3807 9.18672 73.4436 8.48183Z" fill="#24388D"/>
<path d="M44.5377 13.6296L49.1048 0.344744H53.3251L57.8897 13.6296H53.7549L53.2723 11.8699H49.14L48.6348 13.6296H44.5377ZM49.8966 9.08124H52.5157L51.2187 4.48403L49.8966 9.08124Z" fill="#24388D"/>
<path d="M37.7008 13.6296V8.71079L32.92 0.344744H37.5425L39.7795 4.86992L42.0367 0.344744H46.5309L41.8658 8.71079V13.6296H37.7008Z" fill="#24388D"/>
<path d="M26.802 13.6296V0.344744H31.0525V13.6296H26.802Z" fill="#24388D"/>
<path d="M12.5778 13.6296V0.344744H17.62C18.8969 0.344744 19.8521 0.401341 20.4754 0.517107C21.1038 0.632873 21.6493 0.833535 22.1118 1.09851C23.0116 1.64133 23.6877 2.40281 24.1377 3.38039C24.5901 4.35797 24.8163 5.56452 24.8163 6.99487C24.8163 8.49984 24.5398 9.76555 23.9743 10.792C23.4188 11.8159 22.5843 12.5774 21.4959 13.0765C21.0737 13.2771 20.5433 13.4135 19.9049 13.4984C19.2664 13.5858 18.2459 13.627 16.8433 13.627H12.5778V13.6296ZM16.7453 10.2646H17.8739C18.9095 10.2646 19.6258 10.0279 20.0356 9.54945C20.4377 9.07609 20.6363 8.22457 20.6363 6.99487C20.6363 5.79605 20.4302 4.94967 20.0205 4.45059C19.6108 3.95151 18.912 3.70711 17.9267 3.70711H16.7478V10.2646H16.7453Z" fill="#24388D"/>
<path d="M0 13.6296V0.344744H10.3734V3.52703H4.1725V5.29182H9.41326V8.34805H4.1725V10.4035H10.6298V13.6296H0Z" fill="#24388D"/>
</svg>
